<svg id="Layer_1" data-name="Layer 1" xmlns="http://www.w3.org/2000/svg" viewBox="0 0 360 360"><defs><style>.cls-1{fill:#fff;}.cls-2{fill:#231f20;}</style></defs><title>autobio2</title><rect class="cls-1" y="-0.7" width="360" height="360"/><path class="cls-2" d="M36.55,77.6V34.77h8.64V77.6Z"/><path class="cls-2" d="M60.37,42.57c0,6.42-1.5,10.8-7.92,11.46v-4.2c2.1-.42,3.12-2.52,3.12-4.74v-1H52.45V34.77h7.92Z"/><path class="cls-2" d="M81.43,74.18h-.12c-1.86,3.06-4,4.26-7.32,4.26-6.78,0-9.9-5-9.9-17s3.12-17,9.9-17a7.75,7.75,0,0,1,7,3.84h.12V34.77h8.28V77.6H81.43Zm-4.74-2.1c3.66,0,4.38-3.6,4.38-10.61s-.72-10.62-4.38-10.62-4.32,3.6-4.32,10.62S73.09,72.08,76.69,72.08Z"/><path class="cls-2" d="M109.27,45.33h7.92v4.32h.12c1.68-3.12,4-5.16,7.44-5.16a12.63,12.63,0,0,1,1.5.12v7.92c-.9-.06-1.68-.12-2.58-.12-2.88,0-6.12,1.5-6.12,5.82V77.6h-8.28Z"/><path class="cls-2" d="M129.19,55.23v-.78c0-7.44,5.1-10,11.34-10,9.84,0,11.7,4.08,11.7,9.9v17a14,14,0,0,0,1,6.24h-7.92a12.83,12.83,0,0,1-1-3.36h-.12c-1.92,3.36-4.2,4.2-8.22,4.2-5.76,0-7.8-4.92-7.8-9.23,0-6.13,2.46-8.52,8.16-10.08L141,57.87c2.46-.66,3.3-1.62,3.3-3.78,0-2.46-1-4-3.84-4-2.58,0-3.84,1.62-3.84,4.2v.9Zm15.12,6.24a9.06,9.06,0,0,1-3.54,1.61c-3.36.73-4.68,2.34-4.68,5.22,0,2.46.9,4.5,3.12,4.5a4.85,4.85,0,0,0,5.1-5Z"/><path class="cls-2" d="M158.59,36.09h8.28v9.24h4.8V51h-4.8V68.42c0,2.58.54,3.54,2.94,3.54a17.11,17.11,0,0,0,1.86-.12V77.6a53.21,53.21,0,0,1-5.4.36c-6.48,0-7.68-2-7.68-8.52V51h-4.2V45.33h4.2Z"/><path class="cls-2" d="M174.55,34.77h8.28V48.63H183c1.62-2.82,4.32-4.14,7.86-4.14,5.22,0,8.22,2.76,8.22,9.18V77.6h-8.28V55.35c0-3.3-1.08-4.5-3.54-4.5-2.94,0-4.38,1.8-4.38,5.34V77.6h-8.28Z"/><path class="cls-2" d="M210.31,62.73v2.58c0,3.84,1,7.49,4.07,7.49,2.83,0,3.91-2,4.38-6h7.45c-.31,7.49-3.79,11.69-11.71,11.69-12,0-12.47-9.23-12.47-17.27,0-8.64,1.68-16.68,12.84-16.68,9.65,0,11.81,6.48,11.81,16.38v1.86Zm8.45-4.92c-.18-4.92-.77-7.68-4.19-7.68s-4.26,3.36-4.26,6.42v1.26Z"/><path class="cls-2" d="M229.69,45.33h7.92v4.32h.12c1.68-3.12,4-5.16,7.44-5.16a12.63,12.63,0,0,1,1.5.12v7.92c-.9-.06-1.68-.12-2.58-.12-2.88,0-6.12,1.5-6.12,5.82V77.6h-8.28Z"/><path d="M53.92,189.5c2.36-22.71,6.1-40.26,14.88-55.05,7-11.44,17.1-20.19,29.87-22.51a25.86,25.86,0,0,1,18.18,3.62c5.18-4.84,8.39-7.37,11.14-9l1.69,1c-1.56,8.07-2.59,14.32-6.23,38.34L107.89,250.86c-.8,5.13-.21,7.18,2.31,6.72,4.6-.83,12.58-12.88,20.24-25.52,2.05-.59,3.5.23,3.88,2.32-3.54,11.46-13.58,31.24-31.17,34.43-6.07,1.11-8.49-1.48-9.1-4.83s-.24-7.31,1.38-18.64l8.48-56.91-35.6,6.46c-.61,3.79-1.07,10.79-1.81,17.42-2.48,24.46-4.12,48.77-7.06,73.1-2.23,19.87-6.63,32.57-10.3,37.34-2.06,3-9.58,12.77-21.94,15-9.63,1.75-14.9-4.65-15.55-8.21a8.57,8.57,0,0,1,2.61-8.26c2.48-3.05,4.25-1.64,6.42.78,3.8,4.29,9.78,6.23,14,5.47,3.77-.69,8.22-4.74,10-19.78,4.33-36.91,4.7-74.18,8.55-110.14l-17.17,3.12c-2.43-1.51-2.32-5.64.06-8ZM105,180.22l7-46.05c1.73-10.69-5.92-17.09-14.71-15.49C90,120,84.66,125.3,80.85,132.91,76.6,141.69,72.2,156.76,69,186.76Z"/><path d="M208.32,185.69c1.47,11.63-.95,32.83-13.56,51.56-10.55,15.76-21.67,18.86-27.32,19.89-13.4,2.43-24-5.81-26-24C139.92,220,144,198.24,155.75,182c9-12.45,17.84-17.3,26.42-18.86C197,160.48,206.38,170.25,208.32,185.69Zm-39.93-3.13c-9.18,18.54-12.82,44.94-11.44,56.15.92,7.41,5,12.95,11,11.84,4.61-.83,9.5-3.67,14.57-13.89,7-14,11.79-43.46,10.19-54.63-1-6.53-3.55-13.63-10.88-12.3C177.66,170.49,173,173.29,168.39,182.56Z"/><path d="M237.93,173.6c1-5.16.89-8.16-2-7.63-4.19.76-11.69,9.48-16.6,18.16a3.36,3.36,0,0,1-3.79-3c4.78-10.61,15.88-26.9,28.86-29.26,4.82-.87,10.32,4.4,8.8,12.68l-8.6,46.77c-1.56,8.07-1.81,12.66-1.28,15.59.46,2.52,2,4.84,5.52,4.19,9.43-1.71,21.78-25.37,27.1-37.8,5.92-13.84,7.39-30.76,7.52-36,.22-7.18,4-12.42,7.79-13.1a6,6,0,0,1,7.35,4.72c.8,4.4-.78,8.8-3.91,20.18-4.72,16.86-5.6,33.46-3.55,44.77,1.15,6.28,4.4,8.72,9.43,7.81,6.28-1.14,16-10.91,22.31-24.82,6-13.21,8.53-26.86,6.63-37.33a51.62,51.62,0,0,0-4.58-14.52,8.09,8.09,0,0,1,6.38-9c6.7-1.22,9.57,6.27,10.52,11.5,2.13,11.73-1.19,31.58-13.77,54-11.77,21-27,31.29-35.36,32.81-4.4.8-12.71-3.31-13.89-9.8-1-5.66-.36-12.7.32-18.45.44-3.54-1-3.06-2.89.74-7.41,15.19-21.86,34.47-34.42,36.76-5.87,1.06-11.82-4.35-12.74-9.37-.72-4-.24-9.69.79-15.93Z"/><path d="M148.15,134.89a10.26,10.26,0,0,0,1.18.66,8.5,8.5,0,0,0,2.28.1,10.6,10.6,0,0,1,2.14-.08,1.25,1.25,0,0,1,1.07,1.33c.06,1.11-.49,1.43-1,1.37a8.64,8.64,0,0,1-1.6-.46,10.44,10.44,0,0,0-1.79-.57c-.24,0-.47.06-.41.22a8.93,8.93,0,0,1,.44,1.9,8.81,8.81,0,0,1-5.55,8.49,12.92,12.92,0,0,1-3.33.38,1.38,1.38,0,0,0-1,1.41,4.37,4.37,0,0,0,1.71,2.74c1.14,1.09,3.07,2.63,4.85,4.05,2.88,2.22,3.77,3.82,3.86,5.38.15,2.64-3.56,5.39-11.37,3.07-3.5-1-7.65-4.09-7.83-7.41-.21-3.69,5.27-3.82,7.81-3.94-1.29-1.22-1.62-2.06-1.65-2.74-.05-.88,1.32-2.4,1.94-3.08a7,7,0,0,1-3.74-5.56,7.71,7.71,0,0,1,3.43-6.94,9,9,0,0,1,6.93-1.07A6.48,6.48,0,0,1,148.15,134.89ZM148,162.11c-.05-.83-.64-2-2.23-3.4a28.85,28.85,0,0,0-4.59-3.59,6.47,6.47,0,0,0-4.36.39,2.41,2.41,0,0,0-1.65,2.53c.13,2.32,3.42,5,6.68,5.88C144,164.57,148.08,164.47,148,162.11Zm-5-25.47c-1.75,1.71-4,5.25-3.82,7.74a2.4,2.4,0,0,0,1.53,2.15,3,3,0,0,0,3.06-1c2.51-2.54,3.94-6.56,3.86-8.11a2.15,2.15,0,0,0-1.53-2C145.28,135.24,144.39,135.37,143,136.64Z"/><path d="M170.46,142.12a17.5,17.5,0,0,1-4.46,11c-2.8,3.07-5.38,3.18-6.67,3.09-3.07-.22-5.21-2.77-5.15-6.9A15.44,15.44,0,0,1,158.8,139a8.91,8.91,0,0,1,6.44-2.86C168.64,136.17,170.46,138.6,170.46,142.12Zm-8.85-2.32a25.11,25.11,0,0,0-4.12,11.75c0,1.68.75,3.15,2.14,3.24,1.05.07,2.23-.3,3.65-2.33,1.95-2.78,3.84-9.15,3.8-11.7,0-1.49-.42-3.16-2.1-3.17C164,137.58,162.9,138,161.61,139.8Z"/><path d="M187.49,138.78c.37-1.16.43-1.85-.25-1.73-1,.16-2.87,2.1-4.22,4a.68.68,0,0,1-.76-.71c1.36-2.34,4.3-5.95,7.27-6.49,1.1-.2,2.19,1,1.62,2.87q-1.62,5.33-3.22,10.63a10.85,10.85,0,0,0-.72,3.54c0,.57.3,1.1,1.12,1,2.15-.36,5.58-5.81,7.11-8.69a29.32,29.32,0,0,0,2.69-8.29c.24-1.64,1.24-2.88,2.1-3.08a1.11,1.11,0,0,1,1.52,1c.05,1-.42,2-1.44,4.67a26.55,26.55,0,0,0-2,10.28c.08,1.43.74,2,1.89,1.68,1.44-.34,3.88-2.71,5.69-6,1.72-3.14,2.65-6.32,2.52-8.69a10.78,10.78,0,0,0-.62-3.25,2.39,2.39,0,0,1,1.67-2.18c1.54-.41,2,1.25,2,2.43.15,2.65-1.14,7.3-4.58,12.67-3.22,5-6.91,7.6-8.83,8a2.53,2.53,0,0,1-2.84-2.12,16.31,16.31,0,0,1,.59-4.21c.2-.81-.14-.69-.67.19-2.08,3.53-5.85,8-8.73,8.43a2.43,2.43,0,0,1-2.59-2.2,12.25,12.25,0,0,1,.62-3.6Z"/><path d="M219.28,130.51c.21-.59.18-1-.15-.88s-1.55,1-3.84,3.65a.53.53,0,0,1-.66-.63c2.46-3.72,6.05-6.54,7.63-7a.94.94,0,0,1,.8.24c.3.2.33.63-.17,2.17q-2.47,7.55-4.94,15.09c-.16.52-.18,1.11.2,1,.82-.24,3.27-2.63,4.79-5a.59.59,0,0,1,.77.59c-.65,1.59-5.34,7.29-8.65,8.22a.86.86,0,0,1-.79-.21,1,1,0,0,1-.26-1.23Zm5-13.54a3.72,3.72,0,0,1-2.32,3.66,1.27,1.27,0,0,1-1.78-1.26c-.06-1,.5-3.17,2.37-3.72C223.67,115.33,224.24,115.93,224.3,117Z"/><path d="M235,124.46l-3.72,14.16c-.24,1,0,1.2.4,1.09.72-.22,3.74-3.6,5.22-5.85.48-.14.79.07.72.66-2.46,4.69-6.8,8.9-8.81,9.49a1.09,1.09,0,0,1-1.37-.89,10.57,10.57,0,0,1,.52-2.9q1.93-7.42,3.88-14.84l-3.74,1.1a1.44,1.44,0,0,1,.45-1.48l3.8-1.79q1.2-2.73,2.42-5.46a1.6,1.6,0,0,1,1.83-.24c-.37,1.67-.75,3.35-1.12,5l5.22-1.49c.36.38.13,1.41-.47,1.91Q237.62,123.7,235,124.46Z"/><path d="M252.75,102.63q-1.45,5.25-2.9,10.53-2.07,7.71-4.13,15.46l.1.07a39.29,39.29,0,0,1,7.13-9.76,9.91,9.91,0,0,1,4.44-2.92c2.11-.47,3,.9,3.06,2.56.19,3.28-1.55,8.49-3.11,11.92a21.73,21.73,0,0,1-2.89,4.61,6.8,6.8,0,0,1-3.4,2.71c-1.58.4-1.83-.55-1.85-.92a2,2,0,0,1,1.21-1.85,1,1,0,0,1,.69.11,2.36,2.36,0,0,0,1.28.31c.72-.18,1.16-1,1.78-2.84,1.12-3.39,2.91-10.43,2.76-13-.05-.9-.42-1.35-1.09-1.2a6.66,6.66,0,0,0-2.52,1.9,39.22,39.22,0,0,0-5.72,7.84,97.62,97.62,0,0,0-5.24,11.42,1.19,1.19,0,0,1-.83.81c-.53.14-1.78.35-1.46-.84q3.8-14.58,7.59-29.1c.88-3.4,1.08-4.12.28-4.45l-1-.39a.51.51,0,0,1,.11-.66,29.07,29.07,0,0,1,5.54-2.52Z"/><path d="M279.77,115q-1.86,6.69-3.72,13.43c-.24.94,0,1.2.4,1.16.72-.09,3.74-2.87,5.22-4.78.48,0,.78.24.72.82-2.46,4.11-6.8,7.48-8.81,7.76a1.31,1.31,0,0,1-1.37-1.12,9.78,9.78,0,0,1,.52-2.81q1.93-7.11,3.88-14.17c-1.25.13-2.49.28-3.74.45a1.29,1.29,0,0,1,.45-1.41c1.27-.39,2.53-.76,3.8-1.11q1.2-2.5,2.42-5a1.57,1.57,0,0,1,1.83.15c-.37,1.59-.75,3.19-1.12,4.79,1.74-.13,3.48-.23,5.22-.29a1.38,1.38,0,0,1-.47,1.8C283.25,114.75,281.51,114.86,279.77,115Z"/><path d="M297.51,98q-1.45,4.77-2.9,9.6-2.07,7.07-4.13,14.22l.1.1c3.09-4.71,5.47-6.45,7.13-7.56a6.61,6.61,0,0,1,4.44-1.36,3.62,3.62,0,0,1,3.06,3.71c.19,3.35-1.55,7.9-3.11,10.76a13.57,13.57,0,0,1-2.89,3.58,4.66,4.66,0,0,1-3.39,1.58c-1.59-.11-1.83-1.12-1.86-1.51a1.33,1.33,0,0,1,1.21-1.47,1.3,1.3,0,0,1,.69.34,3.36,3.36,0,0,0,1.28.72c.72.06,1.16-.62,1.78-2.23,1.12-3,2.91-9.42,2.76-12.08-.05-.92-.42-1.5-1.09-1.58a4.15,4.15,0,0,0-2.52,1,23.45,23.45,0,0,0-5.72,6,66.56,66.56,0,0,0-5.24,10,.84.84,0,0,1-.83.59c-.53,0-1.78-.09-1.46-1.2q3.8-13.66,7.59-27c.88-3.14,1.08-3.8.28-4.37l-1-.7c-.11-.25-.12-.44.11-.62a20,20,0,0,1,5.54-.8Z"/><path d="M323.12,121.62c.2,3.77-4.41,4-11.2,4.18a10.94,10.94,0,0,0-.44,4.16,3.72,3.72,0,0,0,2.46,3.41c1.72.51,2.87-.09,4.87-1.21a1,1,0,0,1,.67,1.06,7.38,7.38,0,0,1-7.42,2c-2.88-.75-4-3.64-4.16-6-.17-3,1.41-8.7,6.41-11.31a6.57,6.57,0,0,1,5.62-.44A5.35,5.35,0,0,1,323.12,121.62Zm-7.58-1.85a12,12,0,0,0-3.23,4.69c3.11-.11,4.55-.53,6.23-1.63a3.32,3.32,0,0,0,1.68-2.65,1.71,1.71,0,0,0-1.16-1.54C318.39,118.4,317.17,118.4,315.54,119.77Z"/></svg>