<svg id="Layer_1" data-name="Layer 1" xmlns="http://www.w3.org/2000/svg" xmlns:xlink="http://www.w3.org/1999/xlink" viewBox="0 0 274 260"><defs><style>.cls-1{fill:#dd3847;}.cls-2{fill:#e6e6e6;}.cls-3{fill:#fff;}.cls-4{fill:url(#linear-gradient);}.cls-5{fill:url(#linear-gradient-2);}.cls-6{fill:url(#linear-gradient-3);}.cls-7{fill:url(#linear-gradient-4);}.cls-8{fill:url(#linear-gradient-5);}.cls-9{fill:none;stroke:#fff;stroke-miterlimit:10;stroke-width:5px;}</style><linearGradient id="linear-gradient" x1="10.52" y1="38.35" x2="263.46" y2="38.35" gradientUnits="userSpaceOnUse"><stop offset="0.01" stop-color="#b3b3b3"/><stop offset="1" stop-color="#b3b3b3"/></linearGradient><linearGradient id="linear-gradient-2" x1="9.74" y1="90.77" x2="264.24" y2="90.77" gradientUnits="userSpaceOnUse"><stop offset="0" stop-color="#ffbe83"/><stop offset="1" stop-color="#ff9f56"/></linearGradient><linearGradient id="linear-gradient-3" x1="10.58" y1="143.21" x2="263.14" y2="143.21" gradientUnits="userSpaceOnUse"><stop offset="0.01" stop-color="#ccc"/><stop offset="1" stop-color="#999"/></linearGradient><linearGradient id="linear-gradient-4" x1="18" y1="222.84" x2="256" y2="222.84" gradientUnits="userSpaceOnUse"><stop offset="0.01" stop-color="#ccc"/><stop offset="1" stop-color="#b3b3b3"/></linearGradient><linearGradient id="linear-gradient-5" x1="14.22" y1="129.22" x2="250.16" y2="204.92" gradientUnits="userSpaceOnUse"><stop offset="0" stop-color="#dd3847"/><stop offset="1" stop-color="#b61d15"/></linearGradient></defs><title>drum</title><path d="M12.13,126.92c-.2-.34-.41-.7-.6-1,.25,1,.52,2,.8,3Zm4.1,6.22.12.17v0ZM262,126.75l-.19,1.76c.24-.87.46-1.76.68-2.63ZM263.14,110c-.11.68-.23,1.36-.35,2.05.25-.89.48-1.79.69-2.69C263.38,109.57,263.26,109.78,263.14,110Zm-252.56-.5a.23.23,0,0,1-.06-.12c.05.25.11.51.18.77C10.65,109.92,10.61,109.71,10.58,109.49Z"/><path class="cls-1" d="M12.34,128.86c-.3-1-.56-2-.81-3,.19.34.4.69.59,1Z"/><path class="cls-1" d="M16.73,133.81l-.38-.5-.12-.17a1.58,1.58,0,0,0,.12.15C16.48,133.46,16.61,133.63,16.73,133.81Z"/><path class="cls-1" d="M262.45,125.88c-.21.87-.44,1.76-.67,2.63l.17-1.76Z"/><path d="M262,126.75l-.17,1.76c.23-.87.46-1.76.67-2.63Zm-245.6,6.54a1.58,1.58,0,0,1-.12-.15l.12.17.38.5C16.61,133.63,16.48,133.46,16.35,133.29Zm-4.23-6.37c-.19-.35-.4-.7-.59-1,.25,1,.51,2,.81,3Z"/><path class="cls-2" d="M10.58,109.49c0,.22.07.43.12.65-.07-.26-.13-.52-.18-.77A.23.23,0,0,0,10.58,109.49Z"/><path class="cls-2" d="M263.48,109.35c-.21.9-.44,1.8-.69,2.69.12-.69.24-1.37.35-2.05C263.26,109.78,263.38,109.57,263.48,109.35Z"/><path class="cls-3" d="M230.69,24.19C205.62,8.6,172.34,0,137,0S68.36,8.6,43.3,24.19C18,40,4,61,4,83.46v15c0,.5,0,1,0,1.47a53.68,53.68,0,0,0,.79,7.48L5.2,111,11,179.25l.7,6.49v.13C18.79,228.13,72.64,260,137,260c31.55,0,61.74-7.74,85-21.8s37.7-33.25,40.55-54l.32-3L268,119.54l1.43-13.61c.24-1.49.39-3,.5-4.59.05-1.13.09-2.22.09-3.27v-15C269.82,60.77,255.87,39.87,230.69,24.19ZM137,4.61c64.21,0,117.5,29.38,126.47,67.48C257,59.65,245.9,48.27,230.69,38.8,205.62,23.21,172.34,14.61,137,14.61S68.36,23.21,43.3,38.8C28.08,48.27,17,59.65,10.52,72.09,19.48,34,72.78,4.61,137,4.61Zm82.07,229.78c-22.4,13.54-51.54,21-82.07,21-30.08,0-58.93-7.27-81.2-20.48-19.9-11.8-33.14-27.46-37.79-44.53,17.29,32.8,64.36,55.77,119,55.77,31.55,0,61.74-7.74,85-21.79,15.59-9.42,27.21-21.13,34-34.07C251.45,207.14,238.55,222.6,219.06,234.39Zm42.72-105.88,0,0-1.29,12.13-3.08,29v.08c-2.65,19.43-16.26,37.47-38.32,50.8-22.4,13.54-51.54,21-82.07,21-30.09,0-58.93-7.27-81.2-20.48-21.89-13-35.71-30.6-38.92-49.66l-3.25-30.49-1.28-12c-.3-1-.56-2-.81-3,.19.34.4.69.59,1s.27.46.42.69c.39.66.81,1.32,1.23,2s.74,1.12,1.12,1.68.81,1.15,1.24,1.72c0,.06.07.1.1.15a1.58,1.58,0,0,0,.12.15c.13.17.26.34.38.52l.52.68c.49.65,1,1.29,1.53,1.92C41.71,164.25,87,181.54,137,181.54s95.28-17.29,118.21-45.13c.31-.39.64-.79.95-1.19.54-.68,1.07-1.35,1.57-2s1.06-1.45,1.55-2.18c.21-.31.42-.61.62-.92.72-1.11,1.41-2.21,2.06-3.33l.5-.87C262.24,126.75,262,127.64,261.78,128.51Zm1-16.47A60.65,60.65,0,0,1,251,133.69a81.34,81.34,0,0,1-6.74,7.23c-.8.77-1.64,1.52-2.48,2.28C218,164.24,179.3,176.92,137,176.92c-48.35,0-92.05-16.57-114-43.23A59.89,59.89,0,0,1,10.7,110.14a7.74,7.74,0,0,1-.18-.77.31.31,0,0,0,.05.12,70.46,70.46,0,0,0,8.21,12.3C41.71,149.63,87,166.93,137,166.93s95.28-17.3,118.21-45.14A71.91,71.91,0,0,0,263.14,110a6.75,6.75,0,0,0,.34-.65C263.28,110.26,263,111.14,262.79,112Zm1.44-21.24c-1.48,9.9-5.93,19.42-13.23,28.27-22,26.67-65.65,43.24-114,43.24S44.94,145.74,23,119.07C16,110.64,11.66,101.61,10,92.22c-.09-.48-.17-1-.24-1.44C15.74,50.7,70.51,19.23,137,19.23S258.26,50.71,264.23,90.79Z"/><path class="cls-3" d="M263.48,109.35c-.2.91-.44,1.79-.69,2.69A60.65,60.65,0,0,1,251,133.69a81.34,81.34,0,0,1-6.74,7.23c-.8.77-1.64,1.52-2.48,2.28C218,164.24,179.3,176.92,137,176.92c-48.35,0-92.05-16.57-114-43.23A59.89,59.89,0,0,1,10.7,110.14a7.74,7.74,0,0,1-.18-.77.31.31,0,0,0,.05.12,70.46,70.46,0,0,0,8.21,12.3C41.71,149.63,87,166.93,137,166.93s95.28-17.3,118.21-45.14A71.91,71.91,0,0,0,263.14,110,6.75,6.75,0,0,0,263.48,109.35Z"/><path class="cls-4" d="M263.46,72.09C257,59.65,245.9,48.28,230.68,38.8,205.62,23.21,172.35,14.62,137,14.62S68.35,23.21,43.3,38.8C28.08,48.28,17,59.65,10.52,72.09,19.48,34,72.78,4.62,137,4.62S254.5,34,263.46,72.09Z"/><path class="cls-5" d="M264.24,90.79h0c-1.49,9.9-5.94,19.42-13.23,28.27-22,26.67-65.67,43.24-114,43.24S45,145.74,23,119.07c-6.93-8.42-11.3-17.46-13-26.85-.09-.48-.17-1-.24-1.44,6-40.07,60.77-71.55,127.25-71.55S258.27,50.72,264.24,90.79Z"/><path class="cls-6" d="M263.14,110c-.11.68-.23,1.36-.35,2.05A60.81,60.81,0,0,1,251,133.68a87.74,87.74,0,0,1-6.74,7.24c-.81.76-1.64,1.53-2.49,2.28C218,164.24,179.3,176.92,137,176.92c-48.35,0-92-16.57-114-43.24A59.72,59.72,0,0,1,10.7,110.14c0-.22-.09-.43-.12-.65a70.39,70.39,0,0,0,8.2,12.3C41.71,149.63,87,166.92,137,166.92s95.28-17.29,118.21-45.13A70.94,70.94,0,0,0,263.14,110Z"/><path class="cls-7" d="M256,190.29c-4.54,16.86-17.44,32.32-36.94,44.1-22.4,13.54-51.55,21-82.07,21-30.08,0-58.92-7.26-81.2-20.47C35.88,223.12,22.64,207.45,18,190.38c17.29,32.8,64.36,55.77,119,55.77,31.55,0,61.74-7.73,85-21.79C237.58,214.94,249.19,203.23,256,190.29Z"/><path class="cls-8" d="M262,126.75l-.19,1.76v0l-1.29,12.13-3.09,29,0,.09c-2.64,19.43-16.25,37.48-38.31,50.81-22.4,13.53-51.55,21-82.07,21-30.09,0-58.92-7.27-81.2-20.48-21.89-13-35.71-30.61-38.92-49.66l-3.25-30.49-1.29-12-.2-2c.14.23.27.46.4.69.4.66.82,1.32,1.24,2s.74,1.12,1.13,1.67.8,1.16,1.23,1.73c0,.06.07.1.1.15l.12.17.39.5c.16.23.33.45.52.68.49.65,1,1.29,1.52,1.92C41.71,164.25,87,181.54,137,181.54s95.28-17.29,118.21-45.13c.32-.39.64-.79.95-1.19.54-.67,1.07-1.36,1.57-2s1.06-1.45,1.55-2.19l.62-.91C260.61,129,261.31,127.87,262,126.75Z"/><line class="cls-9" x1="181.18" y1="174.62" x2="181.18" y2="238.08"/><line class="cls-9" x1="95.4" y1="176.15" x2="95.4" y2="239.62"/><line class="cls-9" x1="39.93" y1="153.12" x2="43.45" y2="214.58"/><line class="cls-9" x1="232.32" y1="154.65" x2="228.8" y2="216.11"/><rect class="cls-3" x="173.38" y="193.85" width="14.73" height="30.38" rx="6.56" ry="6.56"/><rect class="cls-3" x="88.47" y="193.08" width="14.73" height="30.38" rx="6.56" ry="6.56"/><path class="cls-3" d="M230.12,200.37h0c-4-.19-7.18-3.28-7-6.87l1-17.28c.21-3.59,3.68-6.38,7.73-6.2h0c4,.18,7.19,3.27,7,6.86l-1,17.29C237.65,197.76,234.17,200.55,230.12,200.37Z"/><path class="cls-3" d="M42.12,198.83h0c4.05-.19,7.19-3.27,7-6.87l-1-17.28c-.2-3.59-3.68-6.38-7.72-6.2h0c-4,.18-7.19,3.27-7,6.86l1,17.29C34.6,196.22,38.08,199,42.12,198.83Z"/></svg>