<svg id="Layer_1" data-name="Layer 1" xmlns="http://www.w3.org/2000/svg" viewBox="0 0 36 63"><defs><style>.cls-1{fill:#eda609;}</style></defs><title>rest_orange</title><path class="cls-1" d="M10.64,61.15q7.71-21.81,15.64-43.59l-.22.06c-1,.35-2.07.71-3.11,1A48.45,48.45,0,0,1,17.27,20c-.93.16-1.88.29-2.82.37a17.92,17.92,0,0,1-3,.05,11.91,11.91,0,0,1-8.34-4.21A9.54,9.54,0,0,1,2,14.6c-.13-.26-.28-.51-.41-.77a6.51,6.51,0,0,1-.66-2.4,23.8,23.8,0,0,1,0-3.16,6,6,0,0,1,.56-2.1A9.87,9.87,0,0,1,5.15,1.9,9.65,9.65,0,0,1,8.38.61c.34-.07.68-.14,1-.19a7.48,7.48,0,0,1,1.95,0,8.41,8.41,0,0,1,2.76.8,7.23,7.23,0,0,1,3.64,4,19.52,19.52,0,0,1,.85,2.89,28,28,0,0,0,.75,2.86,8.18,8.18,0,0,0,.32.82,2.84,2.84,0,0,0,2.05,1.63,2.51,2.51,0,0,0,1.93-.3,8.57,8.57,0,0,0,1.55-1.2A37.42,37.42,0,0,0,28,8.79a31.38,31.38,0,0,0,2.26-3,16.41,16.41,0,0,1,1-1.35,1.48,1.48,0,0,1,1.06-.6,2.16,2.16,0,0,1,2.06.86.63.63,0,0,1,.09.62Q30.9,17.65,27.32,30C26,34.55,24.61,39.1,23.26,43.66q-2.32,7.85-4.62,15.7c-.13.46-.25.91-.37,1.37a1.12,1.12,0,0,1-.3.47,3.45,3.45,0,0,1-1,.66,6.35,6.35,0,0,1-2.53.64,5.29,5.29,0,0,1-1.53-.22,5.91,5.91,0,0,1-1.79-.81Z"/></svg>