<svg id="Layer_1" data-name="Layer 1" xmlns="http://www.w3.org/2000/svg" viewBox="0 0 394 333"><defs><style>.cls-1{fill:#97241f;}.cls-2{fill:none;}.cls-3,.cls-5{fill:#231f20;}.cls-3{fill-rule:evenodd;}.cls-4{fill:#fff;}</style></defs><title>Analysis</title><circle class="cls-1" cx="281.87" cy="302.19" r="26.22"/><path class="cls-2" d="M285.59,302.19a3.69,3.69,0,0,1-2.3,3.44,3.94,3.94,0,0,1-1.42.29v45a48.72,48.72,0,0,0,48.72-48.72Z"/><path class="cls-3" d="M292.9,327.72l-1.79-4.13a24.6,24.6,0,0,1-6.54,1.74l.52,4.48A29.4,29.4,0,0,0,292.9,327.72Z"/><path class="cls-3" d="M304.15,318.79l-3.6-2.69a27.12,27.12,0,0,1-2.2,2.59,25.64,25.64,0,0,1-2.59,2.19l2.68,3.61a24.91,24.91,0,0,0,5.71-5.7Z"/><path class="cls-3" d="M309.47,305.49,305,305a23.84,23.84,0,0,1-1.76,6.53l4.13,1.8A28.52,28.52,0,0,0,309.47,305.49Z"/><path class="cls-2" d="M281.87,305.92a3.89,3.89,0,0,1-1.41-.29,3.79,3.79,0,0,1-1.22-.8,3.93,3.93,0,0,1-.81-1.22,3.74,3.74,0,0,1-.28-1.42h-45a48.72,48.72,0,0,0,48.72,48.72Z"/><path class="cls-3" d="M256.34,313.22l4.13-1.79a24.6,24.6,0,0,1-1.74-6.54l-4.47.52A29.38,29.38,0,0,0,256.34,313.22Z"/><path class="cls-3" d="M265.27,324.47l2.69-3.6a21.16,21.16,0,0,1-4.78-4.79l-3.61,2.68a32.16,32.16,0,0,0,2.62,3.09A31.82,31.82,0,0,0,265.27,324.47Z"/><path class="cls-3" d="M278.57,329.79l.53-4.47a23.93,23.93,0,0,1-6.53-1.76l-1.8,4.13A28.61,28.61,0,0,0,278.57,329.79Z"/><path class="cls-2" d="M278.15,302.19a3.69,3.69,0,0,1,.28-1.41,3.7,3.7,0,0,1,2-2,3.89,3.89,0,0,1,1.41-.28v-45a48.75,48.75,0,0,0-48.72,48.72Z"/><path class="cls-3" d="M270.85,276.66l1.78,4.13a24.7,24.7,0,0,1,6.54-1.74l-.52-4.47A29.31,29.31,0,0,0,270.85,276.66Z"/><path class="cls-3" d="M259.59,285.59l3.61,2.7a25.94,25.94,0,0,1,2.2-2.59,27.12,27.12,0,0,1,2.59-2.2l-2.69-3.61a26,26,0,0,0-5.71,5.7Z"/><path class="cls-3" d="M254.27,298.89l4.47.53a24.67,24.67,0,0,1,1.76-6.53l-4.12-1.8A28.63,28.63,0,0,0,254.27,298.89Z"/><path class="cls-2" d="M281.87,298.47a3.94,3.94,0,0,1,1.42.28,3.78,3.78,0,0,1,1.21.81,3.74,3.74,0,0,1,1.09,2.63h45a48.75,48.75,0,0,0-48.72-48.72Z"/><path class="cls-3" d="M307.4,291.17,303.27,293a24.8,24.8,0,0,1,1.74,6.54l4.47-.51A29,29,0,0,0,307.4,291.17Z"/><path class="cls-3" d="M298.47,279.91l-2.69,3.61a27.12,27.12,0,0,1,2.59,2.2,25.64,25.64,0,0,1,2.19,2.59l3.61-2.69a25.45,25.45,0,0,0-5.7-5.71Z"/><path class="cls-3" d="M285.17,274.59l-.53,4.47a24.57,24.57,0,0,1,6.53,1.76l1.8-4.12A28.9,28.9,0,0,0,285.17,274.59Z"/><circle class="cls-1" cx="362.55" cy="208.99" r="26.22"/><path class="cls-2" d="M366.27,209a3.94,3.94,0,0,1-.28,1.42,4.12,4.12,0,0,1-.81,1.22,4,4,0,0,1-1.22.81,4.11,4.11,0,0,1-1.41.28v45A48.7,48.7,0,0,0,411.26,209Z"/><path class="cls-3" d="M373.57,234.52l-1.79-4.13a24.65,24.65,0,0,1-6.53,1.75l.51,4.47A29.4,29.4,0,0,0,373.57,234.52Z"/><path class="cls-3" d="M384.83,225.59l-3.61-2.69a20.94,20.94,0,0,1-4.79,4.79l2.69,3.61a25.78,25.78,0,0,0,5.71-5.71Z"/><path class="cls-3" d="M390.15,212.29l-4.47-.53a24.57,24.57,0,0,1-1.76,6.53l4.12,1.8A28.9,28.9,0,0,0,390.15,212.29Z"/><path class="cls-2" d="M362.55,212.72a4.17,4.17,0,0,1-1.42-.28,4,4,0,0,1-1.22-.81,4.12,4.12,0,0,1-.81-1.22,3.94,3.94,0,0,1-.28-1.42h-45a48.7,48.7,0,0,0,48.72,48.72Z"/><path class="cls-3" d="M337,220l4.14-1.79a24.65,24.65,0,0,1-1.75-6.53l-4.47.51A29.38,29.38,0,0,0,337,220Z"/><path class="cls-3" d="M346,231.27l2.69-3.6a20.94,20.94,0,0,1-4.79-4.79l-3.61,2.68a30.88,30.88,0,0,0,2.63,3.09A29.59,29.59,0,0,0,346,231.27Z"/><path class="cls-3" d="M359.25,236.59l.53-4.46a24.38,24.38,0,0,1-6.54-1.77l-1.79,4.13A28.52,28.52,0,0,0,359.25,236.59Z"/><path class="cls-2" d="M358.82,209a3.89,3.89,0,0,1,.28-1.41,4,4,0,0,1,.81-1.22,3.82,3.82,0,0,1,1.22-.81,3.94,3.94,0,0,1,1.42-.28v-45A48.7,48.7,0,0,0,313.83,209Z"/><path class="cls-3" d="M351.52,183.46l1.79,4.13a24.63,24.63,0,0,1,6.53-1.74l-.51-4.47A29.38,29.38,0,0,0,351.52,183.46Z"/><path class="cls-3" d="M340.27,192.4l3.6,2.69a20.94,20.94,0,0,1,4.79-4.79L346,186.69a30.88,30.88,0,0,0-3.09,2.63A29.59,29.59,0,0,0,340.27,192.4Z"/><path class="cls-3" d="M335,205.7l4.46.52a24.31,24.31,0,0,1,1.77-6.53l-4.13-1.8A28.59,28.59,0,0,0,335,205.7Z"/><path class="cls-2" d="M362.55,205.27a3.89,3.89,0,0,1,1.41.28,3.82,3.82,0,0,1,1.22.81,4,4,0,0,1,.81,1.22,3.89,3.89,0,0,1,.28,1.41h45a48.7,48.7,0,0,0-48.71-48.71Z"/><path class="cls-3" d="M388.08,198,384,199.75a24.8,24.8,0,0,1,1.74,6.54l4.47-.51A29.38,29.38,0,0,0,388.08,198Z"/><path class="cls-3" d="M379.14,186.71l-2.69,3.61a20.94,20.94,0,0,1,4.79,4.79l3.61-2.69a25.78,25.78,0,0,0-5.71-5.71Z"/><path class="cls-3" d="M365.84,181.39l-.52,4.47a24.67,24.67,0,0,1,6.53,1.76l1.79-4.12A28.8,28.8,0,0,0,365.84,181.39Z"/><circle class="cls-4" cx="292.08" cy="126.79" r="12.09"/><path class="cls-2" d="M281.67,126.79a10.46,10.46,0,0,1,3.05-7.36,10.4,10.4,0,0,1,14.73,0,10.27,10.27,0,0,1,2.25,3.37,10.56,10.56,0,0,1,.8,4h-45a34.59,34.59,0,0,0,69.17,0Z"/><path class="cls-3" d="M282.71,136.74l3.09-3.28a9.07,9.07,0,0,1-2.64-4.56l-4.38,1A13.77,13.77,0,0,0,282.71,136.74Z"/><path class="cls-3" d="M296,139.89l-1.29-4.31a10.15,10.15,0,0,1-2.64.39,10.29,10.29,0,0,1-2.64-.4l-1.29,4.31a14.89,14.89,0,0,0,3.93.59A14.6,14.6,0,0,0,296,139.89Z"/><path class="cls-3" d="M305.37,130,301,129a9.1,9.1,0,0,1-2.66,4.55l3.07,3.29A13.66,13.66,0,0,0,305.37,130Z"/><path class="cls-2" d="M302.5,126.79a10.6,10.6,0,0,1-.8,4,10.38,10.38,0,0,1-2.25,3.37,10.56,10.56,0,0,1-3.37,2.26,10.5,10.5,0,0,1-8,0,10.56,10.56,0,0,1-3.37-2.26,10.38,10.38,0,0,1-2.25-3.37,10.23,10.23,0,0,1-.8-4h45a34.59,34.59,0,0,0-69.17,0Z"/><path class="cls-3" d="M301.46,116.84l-3.09,3.28a9.21,9.21,0,0,1,2.64,4.56l4.38-1A13.73,13.73,0,0,0,301.46,116.84Z"/><path class="cls-3" d="M288.17,113.69l1.29,4.31a10.15,10.15,0,0,1,2.64-.39,10.59,10.59,0,0,1,2.63.39l1.3-4.3a13.49,13.49,0,0,0-7.86,0Z"/><path class="cls-3" d="M278.8,123.57l4.38,1.06a9.1,9.1,0,0,1,2.66-4.55l-3.07-3.29A13.59,13.59,0,0,0,278.8,123.57Z"/><circle class="cls-4" cx="362.55" cy="208.99" r="12.09"/><path class="cls-2" d="M352.13,209a10.6,10.6,0,0,1,.8-4,10.43,10.43,0,0,1,9.62-6.42,10.23,10.23,0,0,1,4,.8,10.37,10.37,0,0,1,5.62,5.62,10.23,10.23,0,0,1,.8,4H328a34.59,34.59,0,0,0,69.17,0Z"/><path class="cls-3" d="M353.17,218.94l3.09-3.27a9.21,9.21,0,0,1-2.64-4.56l-4.38,1A13.7,13.7,0,0,0,353.17,218.94Z"/><path class="cls-3" d="M366.46,222.1l-1.29-4.32a10.15,10.15,0,0,1-2.64.39,10.59,10.59,0,0,1-2.63-.39l-1.3,4.31a13.72,13.72,0,0,0,7.86,0Z"/><path class="cls-3" d="M375.83,212.22l-4.38-1.06a9.07,9.07,0,0,1-2.66,4.54l3.07,3.3A13.63,13.63,0,0,0,375.83,212.22Z"/><path class="cls-2" d="M373,209a10.4,10.4,0,0,1-6.42,9.62,10.38,10.38,0,0,1-8,0,10.37,10.37,0,0,1-5.62-5.62,10.65,10.65,0,0,1-.8-4h45A34.59,34.59,0,0,0,328,209Z"/><path class="cls-3" d="M371.92,199.05l-3.09,3.27a9.07,9.07,0,0,1,2.64,4.56l4.38-1A13.7,13.7,0,0,0,371.92,199.05Z"/><path class="cls-3" d="M358.63,195.89l1.29,4.31a10.59,10.59,0,0,1,2.64-.38,10.28,10.28,0,0,1,2.64.39l1.29-4.31a13.72,13.72,0,0,0-7.86,0Z"/><path class="cls-3" d="M349.26,205.77l4.38,1.06a9.07,9.07,0,0,1,2.66-4.54l-3.07-3.3A13.66,13.66,0,0,0,349.26,205.77Z"/><path class="cls-1" d="M125.69,66.67a59.93,59.93,0,0,1-25.33,49C99.17,57.23,88.28,47.45,34,47.45V32.75h81.21A59.68,59.68,0,0,1,125.69,66.67Z"/><path class="cls-1" d="M206.66,242.74a59.68,59.68,0,0,1-5.24,24.55l-26.74-23.15-18.2,14.7v43.09a58.89,58.89,0,0,1-9.82.81,59.86,59.86,0,0,1-46.18-21.69V204.44a59.84,59.84,0,0,1,46.18-21.7,58.89,58.89,0,0,1,9.82.81v43.09l31.78-27.13A59.83,59.83,0,0,1,206.66,242.74Z"/><path class="cls-2" d="M103.2,66.79A38.66,38.66,0,0,1,101,79.62a38.2,38.2,0,0,1-6.53,11.26l34.46,28.94a82.2,82.2,0,0,0,19.31-53Z"/><path class="cls-3" d="M119.23,97.23,115.32,95a57.19,57.19,0,0,1-4.06,6.18l3.59,2.71A61.16,61.16,0,0,0,119.23,97.23Z"/><path class="cls-3" d="M124.81,84.08l-4.32-1.26c-.31,1.19-.76,2.34-1.14,3.51s-.86,2.32-1.39,3.43l4.12,1.81c.56-1.2,1-2.46,1.5-3.69S124.47,85.37,124.81,84.08Z"/><path class="cls-3" d="M127.2,70l-4.5-.23a58.32,58.32,0,0,1-.87,7.34l4.43.81A65.57,65.57,0,0,0,127.2,70Z"/><path class="cls-2" d="M94.42,90.88a37.38,37.38,0,0,1-22.19,12.83L80,148a82.51,82.51,0,0,0,48.89-28.21Z"/><path class="cls-3" d="M87.15,124.53l-1.57-4.21a58.1,58.1,0,0,1-7.08,2.1l1,4.39A62.18,62.18,0,0,0,87.15,124.53Z"/><path class="cls-3" d="M99.86,118l-2.5-3.74A59.75,59.75,0,0,1,91,118l2,4A63.06,63.06,0,0,0,99.86,118Z"/><path class="cls-3" d="M110.71,108.81l-3.29-3.07a61.53,61.53,0,0,1-5.38,5.08l2.87,3.46A63.72,63.72,0,0,0,110.71,108.81Z"/><path class="cls-2" d="M72.23,103.71a37.11,37.11,0,0,1-13.07,0A36.33,36.33,0,0,1,47,99.27l-22.53,39a81.38,81.38,0,0,0,27,9.81A81.78,81.78,0,0,0,80,148Z"/><path class="cls-3" d="M45,124.81l1.51-4.24a54.22,54.22,0,0,1-6.78-2.94l-2.05,4A59.24,59.24,0,0,0,45,124.81Z"/><path class="cls-3" d="M58.93,128l.49-4.47c-1.22-.16-2.45-.28-3.66-.53s-2.42-.46-3.62-.75l-1.06,4.37c1.29.31,2.59.6,3.9.81S57.61,127.83,58.93,128Z"/><path class="cls-3" d="M73.16,127.91l-.54-4.46c-1.22.18-2.45.22-3.68.33s-2.47.1-3.7.09l0,4.5c1.33,0,2.66,0,4-.09S71.85,128.11,73.16,127.91Z"/><path class="cls-2" d="M47,99.27a37.63,37.63,0,0,1-10-8.39,38.39,38.39,0,0,1-6.52-11.26L-11.84,95a82.69,82.69,0,0,0,36.27,43.21Z"/><path class="cls-3" d="M12.56,97.94l3.88-2.28a58.25,58.25,0,0,1-3.33-6.6L9,90.82A63.25,63.25,0,0,0,12.56,97.94Z"/><path class="cls-3" d="M21.17,109.33l3.26-3.11a57,57,0,0,1-4.76-5.66L16,103.22A62.36,62.36,0,0,0,21.17,109.33Z"/><path class="cls-3" d="M32.13,118.42l2.45-3.77c-1-.64-2-1.41-3-2.11s-2-1.49-2.88-2.32l-2.92,3.42c1,.9,2.07,1.67,3.11,2.51S31,117.73,32.13,118.42Z"/><path class="cls-2" d="M30.44,79.62a37.7,37.7,0,0,1,0-25.66L-11.84,38.57a82.76,82.76,0,0,0,0,56.44Z"/><path class="cls-3" d="M5,56.5l4.44.75a57.43,57.43,0,0,1,1.69-7.2L6.8,48.73A63,63,0,0,0,5,56.5Z"/><path class="cls-3" d="M4.24,70.76l4.49-.29c-.1-1.23-.08-2.46-.13-3.7s0-2.47.14-3.7l-4.49-.28c-.12,1.32-.1,2.65-.15,4S4.13,69.43,4.24,70.76Z"/><path class="cls-3" d="M6.78,84.77l4.3-1.31a59.2,59.2,0,0,1-1.68-7.2L5,77A60.84,60.84,0,0,0,6.78,84.77Z"/><path class="cls-2" d="M30.44,54A38.26,38.26,0,0,1,37,42.7a37.63,37.63,0,0,1,10-8.39L24.43-4.64A82.69,82.69,0,0,0-11.84,38.57Z"/><path class="cls-3" d="M25.8,19.88l2.92,3.43c.91-.83,1.92-1.55,2.88-2.32s2-1.46,3-2.1l-2.46-3.77c-1.13.69-2.19,1.51-3.28,2.26S26.79,19,25.8,19.88Z"/><path class="cls-3" d="M16.06,30.33,19.69,33a55.78,55.78,0,0,1,4.76-5.65L21.2,24.23A61.18,61.18,0,0,0,16.06,30.33Z"/><path class="cls-3" d="M9,42.69l4.14,1.76a58.18,58.18,0,0,1,3.34-6.59L12.6,35.57A65.05,65.05,0,0,0,9,42.69Z"/><path class="cls-2" d="M47,34.31a36.33,36.33,0,0,1,12.2-4.44,37.11,37.11,0,0,1,13.07,0L80-14.45a81.78,81.78,0,0,0-28.6,0,81.38,81.38,0,0,0-27,9.81Z"/><path class="cls-3" d="M65.29,5.21l0,4.5a57,57,0,0,1,7.38.43l.55-4.47A62.39,62.39,0,0,0,65.29,5.21Z"/><path class="cls-3" d="M51.11,7l1.06,4.37,1.8-.41c.61-.13,1.22-.23,1.82-.34,1.21-.24,2.44-.36,3.66-.53L59,5.57c-1.32.17-2.65.31-3.95.57-.66.12-1.31.22-2,.36Z"/><path class="cls-3" d="M37.76,11.9l2.05,4A55.68,55.68,0,0,1,46.59,13l-1.5-4.24A59.32,59.32,0,0,0,37.76,11.9Z"/><path class="cls-2" d="M72.23,29.87A37.38,37.38,0,0,1,94.42,42.7l34.46-28.94A82.51,82.51,0,0,0,80-14.45Z"/><path class="cls-3" d="M105,19.35l-2.87,3.46a61.33,61.33,0,0,1,5.37,5.08l3.29-3.06A62.43,62.43,0,0,0,105,19.35Z"/><path class="cls-3" d="M93,11.57l-2,4a58,58,0,0,1,6.4,3.69l2.5-3.74A63.06,63.06,0,0,0,93,11.57Z"/><path class="cls-3" d="M79.58,6.79l-1,4.38a56.47,56.47,0,0,1,7.08,2.12l1.57-4.22A61.52,61.52,0,0,0,79.58,6.79Z"/><path class="cls-2" d="M94.42,42.7A38.07,38.07,0,0,1,101,54a38.61,38.61,0,0,1,2.25,12.83h45a82.2,82.2,0,0,0-19.31-53Z"/><path class="cls-3" d="M126.27,55.69l-4.43.81a58.32,58.32,0,0,1,.87,7.34l4.49-.23A64.05,64.05,0,0,0,126.27,55.69Z"/><path class="cls-3" d="M122.09,42,118,43.85c.53,1.11.93,2.28,1.39,3.42s.83,2.33,1.14,3.52l4.32-1.26c-.34-1.29-.82-2.53-1.23-3.8S122.65,43.24,122.09,42Z"/><path class="cls-3" d="M114.9,29.75l-3.59,2.71a58.64,58.64,0,0,1,4,6.18l3.91-2.22A61.2,61.2,0,0,0,114.9,29.75Z"/><path class="cls-2" d="M184.17,242.74a38.57,38.57,0,0,1-2.25,12.83,38.12,38.12,0,0,1-6.53,11.27l34.46,28.94a82.2,82.2,0,0,0,19.31-53Z"/><path class="cls-3" d="M200.2,273.18,196.29,271a56.1,56.1,0,0,1-4.06,6.17l3.59,2.72A61.28,61.28,0,0,0,200.2,273.18Z"/><path class="cls-3" d="M205.78,260l-4.32-1.26c-.31,1.2-.76,2.35-1.14,3.52s-.86,2.31-1.39,3.43l4.12,1.81c.56-1.21,1-2.46,1.5-3.7S205.44,261.32,205.78,260Z"/><path class="cls-3" d="M208.17,246l-4.5-.23a58.32,58.32,0,0,1-.87,7.34l4.43.81A65.81,65.81,0,0,0,208.17,246Z"/><path class="cls-2" d="M175.39,266.84a37.41,37.41,0,0,1-22.19,12.82L161,324a82.51,82.51,0,0,0,48.89-28.21Z"/><path class="cls-3" d="M168.12,300.49l-1.57-4.22a56.42,56.42,0,0,1-7.08,2.11l1,4.38A60.44,60.44,0,0,0,168.12,300.49Z"/><path class="cls-3" d="M180.83,294l-2.5-3.74a58,58,0,0,1-6.4,3.69l2,4A64.72,64.72,0,0,0,180.83,294Z"/><path class="cls-3" d="M191.68,284.77l-3.29-3.08a58.66,58.66,0,0,1-5.38,5.08l2.87,3.47A66.63,66.63,0,0,0,191.68,284.77Z"/><path class="cls-2" d="M153.2,279.66a36.49,36.49,0,0,1-13.07,0,36.18,36.18,0,0,1-12.19-4.43L105.4,314.17a81.4,81.4,0,0,0,27,9.82,82.42,82.42,0,0,0,28.6,0Z"/><path class="cls-3" d="M126,300.77l1.51-4.24a55.74,55.74,0,0,1-6.78-2.94l-2,4A60.79,60.79,0,0,0,126,300.77Z"/><path class="cls-3" d="M139.9,304l.49-4.47c-1.22-.17-2.45-.29-3.66-.53s-2.42-.47-3.62-.76l-1.06,4.38c1.29.31,2.59.6,3.9.81S138.58,303.79,139.9,304Z"/><path class="cls-3" d="M154.13,303.87l-.54-4.47c-1.22.19-2.45.23-3.68.34s-2.47.09-3.7.08l0,4.5c1.33,0,2.66,0,4-.09S152.82,304.07,154.13,303.87Z"/><path class="cls-2" d="M127.94,275.23a37.51,37.51,0,0,1-10-8.39,38.31,38.31,0,0,1-6.52-11.27L69.13,271a83.39,83.39,0,0,0,14.35,24.81,82.29,82.29,0,0,0,21.92,18.39Z"/><path class="cls-3" d="M93.53,273.89l3.88-2.28A59,59,0,0,1,94.08,265l-4.14,1.75A63.25,63.25,0,0,0,93.53,273.89Z"/><path class="cls-3" d="M102.14,285.28l3.26-3.11a55.78,55.78,0,0,1-4.76-5.65L97,279.18A61.09,61.09,0,0,0,102.14,285.28Z"/><path class="cls-3" d="M113.1,294.37l2.45-3.77c-1-.64-2-1.4-3-2.1s-2-1.49-2.88-2.32l-2.92,3.42c1,.89,2.07,1.67,3.11,2.5S112,293.68,113.1,294.37Z"/><path class="cls-2" d="M111.41,255.57a37.68,37.68,0,0,1,0-25.65l-42.28-15.4a82.79,82.79,0,0,0,0,56.45Z"/><path class="cls-3" d="M85.94,232.45l4.44.75A56.87,56.87,0,0,1,92.07,226l-4.3-1.32A62.47,62.47,0,0,0,85.94,232.45Z"/><path class="cls-3" d="M85.21,246.71l4.49-.28c-.1-1.23-.08-2.47-.13-3.7s0-2.47.14-3.7l-4.49-.29c-.12,1.33-.1,2.66-.15,4S85.1,245.39,85.21,246.71Z"/><path class="cls-3" d="M87.75,260.72l4.3-1.31a58.77,58.77,0,0,1-1.68-7.2l-4.44.75A61.09,61.09,0,0,0,87.75,260.72Z"/><path class="cls-2" d="M111.41,229.92a38.31,38.31,0,0,1,6.52-11.27,37.51,37.51,0,0,1,10-8.39L105.4,171.32a82.29,82.29,0,0,0-21.92,18.39,83.39,83.39,0,0,0-14.35,24.81Z"/><path class="cls-3" d="M106.77,195.84l2.92,3.42c.91-.82,1.92-1.54,2.88-2.31s2-1.46,3.05-2.1l-2.46-3.78c-1.13.7-2.19,1.51-3.28,2.27S107.76,195,106.77,195.84Z"/><path class="cls-3" d="M97,206.28l3.63,2.67a57,57,0,0,1,4.76-5.66l-3.25-3.11A62.34,62.34,0,0,0,97,206.28Z"/><path class="cls-3" d="M90,218.64l4.14,1.77a57.49,57.49,0,0,1,3.34-6.6l-3.88-2.28A64.91,64.91,0,0,0,90,218.64Z"/><path class="cls-2" d="M127.94,210.26a36.18,36.18,0,0,1,12.19-4.43,36.49,36.49,0,0,1,13.07,0L161,161.5a82.42,82.42,0,0,0-28.6,0,81.4,81.4,0,0,0-27,9.82Z"/><path class="cls-3" d="M146.26,181.16l0,4.5a58.82,58.82,0,0,1,7.38.44l.55-4.47A62.4,62.4,0,0,0,146.26,181.16Z"/><path class="cls-3" d="M132.08,182.91l1.06,4.37,1.8-.42c.61-.13,1.22-.22,1.82-.33,1.21-.25,2.44-.37,3.66-.53l-.48-4.47c-1.32.17-2.65.3-3.95.56-.66.13-1.31.23-2,.37Z"/><path class="cls-3" d="M118.73,187.86l2,4a55.62,55.62,0,0,1,6.78-2.92l-1.5-4.24A59.32,59.32,0,0,0,118.73,187.86Z"/><path class="cls-2" d="M153.2,205.83a37.41,37.41,0,0,1,22.19,12.82l34.46-28.94A82.51,82.51,0,0,0,161,161.5Z"/><path class="cls-3" d="M185.94,195.3l-2.87,3.47a61.33,61.33,0,0,1,5.37,5.08l3.29-3.07A65.22,65.22,0,0,0,185.94,195.3Z"/><path class="cls-3" d="M174,187.53l-2,4a59.75,59.75,0,0,1,6.4,3.7l2.5-3.74A63.06,63.06,0,0,0,174,187.53Z"/><path class="cls-3" d="M160.55,182.74l-1,4.39a54.84,54.84,0,0,1,7.08,2.12l1.57-4.22A61.56,61.56,0,0,0,160.55,182.74Z"/><path class="cls-2" d="M175.39,218.65a38.12,38.12,0,0,1,6.53,11.27,38.55,38.55,0,0,1,2.25,12.82h45a82.2,82.2,0,0,0-19.31-53Z"/><path class="cls-3" d="M207.24,231.65l-4.43.81a58.32,58.32,0,0,1,.87,7.34l4.49-.23A63.83,63.83,0,0,0,207.24,231.65Z"/><path class="cls-3" d="M203.06,218l-4.12,1.81c.53,1.12.93,2.29,1.39,3.43s.83,2.32,1.14,3.52l4.32-1.26c-.34-1.29-.82-2.53-1.23-3.8S203.62,219.2,203.06,218Z"/><path class="cls-3" d="M195.87,205.71l-3.59,2.7a59.83,59.83,0,0,1,4.05,6.19l3.91-2.22A60.25,60.25,0,0,0,195.87,205.71Z"/><rect class="cls-2" x="292.91" y="246.49" width="35.42" height="45" transform="translate(-96.05 327.79) rotate(-49.12)"/><rect class="cls-5" x="315.55" y="258.24" width="6.57" height="4.5" transform="translate(-86.78 331.08) rotate(-49.12)"/><rect class="cls-5" x="307.84" y="267.15" width="6.57" height="4.5" transform="translate(-96.19 328.32) rotate(-49.12)"/><rect class="cls-5" x="300.15" y="276.04" width="6.57" height="4.5" transform="translate(-105.57 325.58) rotate(-49.12)"/><rect class="cls-2" x="316.09" y="219.71" width="35.42" height="45" transform="translate(-67.79 336.07) rotate(-49.12)"/><rect class="cls-5" x="338.73" y="231.46" width="6.57" height="4.5" transform="translate(-58.53 339.35) rotate(-49.12)"/><rect class="cls-5" x="331.02" y="240.38" width="6.57" height="4.5" transform="translate(-67.93 336.6) rotate(-49.12)"/><rect class="cls-5" x="323.33" y="249.26" width="6.57" height="4.5" transform="translate(-77.31 333.85) rotate(-49.12)"/><rect class="cls-2" x="311.6" y="158.31" width="45" height="34.99" transform="translate(-33.98 259.75) rotate(-40.6)"/><rect class="cls-5" x="324.76" y="163.28" width="4.5" height="6.49" transform="translate(-29.65 252.91) rotate(-40.6)"/><rect class="cls-5" x="332.34" y="172.12" width="4.5" height="6.49" transform="translate(-33.58 259.97) rotate(-40.6)"/><rect class="cls-5" x="339.9" y="180.94" width="4.5" height="6.49" transform="translate(-37.5 267.01) rotate(-40.6)"/><rect class="cls-2" x="288.83" y="131.75" width="45" height="34.99" transform="translate(-22.17 238.54) rotate(-40.6)"/><rect class="cls-5" x="301.99" y="136.71" width="4.5" height="6.49" transform="translate(-17.84 231.69) rotate(-40.6)"/><rect class="cls-5" x="309.57" y="145.56" width="4.5" height="6.49" transform="translate(-21.77 238.75) rotate(-40.6)"/><rect class="cls-5" x="317.13" y="154.37" width="4.5" height="6.49" transform="translate(-25.69 245.79) rotate(-40.6)"/></svg>