<svg id="Layer_1" data-name="Layer 1" xmlns="http://www.w3.org/2000/svg" viewBox="0 0 360 360"><defs><style>.cls-1{fill:#231f20;}</style></defs><title>autobio_1</title><path class="cls-1" d="M31.25,79V36.16h8.64V79Z"/><path class="cls-1" d="M55.07,44c0,6.42-1.5,10.8-7.92,11.46v-4.2c2.1-.42,3.12-2.52,3.12-4.74v-1H47.15V36.16h7.92Z"/><path class="cls-1" d="M76.79,75.58h-.12c-1.86,3.06-4,4.26-7.32,4.26-6.78,0-9.9-5-9.9-17s3.12-17,9.9-17a7.75,7.75,0,0,1,7,3.84h.12V36.16h8.28V79H76.79Zm-4.74-2.1c3.66,0,4.38-3.6,4.38-10.62s-.72-10.62-4.38-10.62-4.32,3.6-4.32,10.62S68.45,73.48,72.05,73.48Z"/><path class="cls-1" d="M110.43,46.72h7.92V51h.12c1.68-3.12,4-5.16,7.44-5.16a13,13,0,0,1,1.5.12v7.92c-.91-.06-1.68-.12-2.58-.12-2.88,0-6.12,1.5-6.12,5.82V79h-8.28Z"/><path class="cls-1" d="M130.35,56.62v-.78c0-7.44,5.1-10,11.33-10,9.84,0,11.7,4.08,11.7,9.9v17a14,14,0,0,0,1,6.24h-7.92a13.22,13.22,0,0,1-1-3.36h-.12c-1.92,3.36-4.2,4.2-8.21,4.2-5.76,0-7.8-4.92-7.8-9.24,0-6.12,2.46-8.52,8.16-10.08l4.68-1.26c2.46-.66,3.29-1.62,3.29-3.78,0-2.46-1-4-3.83-4-2.59,0-3.84,1.62-3.84,4.2v.9Zm15.11,6.24a9.11,9.11,0,0,1-3.54,1.62c-3.35.72-4.67,2.34-4.67,5.22,0,2.46.9,4.5,3.12,4.5a4.85,4.85,0,0,0,5.09-5Z"/><path class="cls-1" d="M161.06,37.48h8.28v9.24h4.8v5.64h-4.8V69.82c0,2.58.54,3.54,2.94,3.54a17.11,17.11,0,0,0,1.86-.12V79a53.21,53.21,0,0,1-5.4.36c-6.48,0-7.68-2-7.68-8.52V52.36h-4.19V46.72h4.19Z"/><path class="cls-1" d="M177,36.16h8.28V50h.12c1.62-2.82,4.32-4.14,7.86-4.14,5.22,0,8.22,2.76,8.22,9.18V79h-8.28V56.74c0-3.3-1.08-4.5-3.54-4.5-2.94,0-4.38,1.8-4.38,5.34V79H177Z"/><path class="cls-1" d="M214.1,64.12V66.7c0,3.84,1,7.5,4.08,7.5,2.82,0,3.9-2,4.38-6.06H230c-.3,7.5-3.78,11.7-11.7,11.7-12,0-12.48-9.24-12.48-17.28,0-8.64,1.68-16.68,12.84-16.68,9.66,0,11.82,6.48,11.82,16.38v1.86Zm8.46-4.92c-.18-4.92-.78-7.68-4.2-7.68s-4.26,3.36-4.26,6.42V59.2Z"/><path class="cls-1" d="M234.8,46.72h7.92V51h.12c1.68-3.12,4-5.16,7.44-5.16a12.63,12.63,0,0,1,1.5.12v7.92c-.9-.06-1.68-.12-2.58-.12-2.88,0-6.12,1.5-6.12,5.82V79H234.8Z"/><path class="cls-1" d="M51.77,100.72v30.66C51.77,140,48,144,38.33,144c-7,0-11-3.12-11-8.64h7.92a2.89,2.89,0,0,0,1.26,2.46,4.89,4.89,0,0,0,2.76.9c3.36,0,4.56-2.46,4.56-5.82v-4.26h-.12a8.71,8.71,0,0,1-6.9,4c-6.54,0-9.9-4.56-9.9-16.32,0-7.56,1.2-16.44,10.14-16.44a7.21,7.21,0,0,1,6.66,4.44h.12v-3.6ZM39.35,126.28c3.54,0,4.5-3.78,4.5-9.24,0-7.86-1-10.8-4.32-10.8-3.66,0-4.32,2.94-4.32,11.64C35.21,122.32,35.81,126.28,39.35,126.28Z"/><path class="cls-1" d="M69.23,99.88c9.9-.18,12.72,5.7,12.72,17,0,11-3.3,17-12.72,17-9.9.18-12.72-5.7-12.72-17C56.51,105.82,59.81,99.88,69.23,99.88Zm0,28.32c3.36,0,4.44-3.24,4.44-11.34s-1.08-11.34-4.44-11.34c-4.08,0-4.44,4.74-4.44,11.34S65.15,128.2,69.23,128.2Z"/><path class="cls-1" d="M47.65,166.72c.54-1.38.66-2.22-.18-2.22-1.2,0-3.72,2-5.52,4.2a1,1,0,0,1-.9-1c1.86-2.7,5.76-6.66,9.48-6.66,1.38,0,2.64,1.74,1.8,4l-4.74,12.54a13,13,0,0,0-1.14,4.26c0,.72.3,1.44,1.32,1.44,2.7,0,7.32-5.94,9.42-9.12a31.52,31.52,0,0,0,3.9-9.6c.42-2,1.74-3.24,2.82-3.24a1.68,1.68,0,0,1,1.8,1.68c0,1.26-.66,2.4-2.1,5.4a30,30,0,0,0-3.24,12.24c0,1.8.78,2.64,2.22,2.64,1.8,0,5-2.22,7.44-5.76,2.34-3.36,3.72-7,3.72-10a14.57,14.57,0,0,0-.54-4.26A2.28,2.28,0,0,1,75.43,161c1.92,0,2.34,2.22,2.34,3.72,0,3.36-1.92,8.7-6.54,14.28-4.32,5.22-9.06,7.32-11.46,7.32a3.88,3.88,0,0,1-3.36-3.42,18.78,18.78,0,0,1,1-5.1c.3-1-.12-.9-.84.06-2.82,3.84-7.8,8.46-11.4,8.46a3.41,3.41,0,0,1-3.06-3.24,14.51,14.51,0,0,1,1-4.38Z"/><path class="cls-1" d="M87.49,166c.3-.66.3-1.14-.12-1.14s-2,.72-5,3.18a.85.85,0,0,1-.78-1c3.3-3.78,7.92-6,9.9-6,.42,0,.72.36,1,.6s.36.9-.36,2.64L85,181.3c-.24.6-.3,1.32.18,1.32,1,0,4.2-2.1,6.24-4.44a1,1,0,0,1,.9,1c-.9,1.74-7.08,7.14-11.22,7.14a1.33,1.33,0,0,1-1-.54,1.42,1.42,0,0,1-.24-1.62Zm7.14-15.06c0,1.86-1.32,3.72-3.12,3.72a2,2,0,0,1-2.1-2.22c0-1.32.84-3.78,3.18-3.78C94,148.66,94.63,149.62,94.63,150.94Z"/><path class="cls-1" d="M107.29,164.2l-5.58,16.32c-.36,1.14-.06,1.5.42,1.5.9,0,4.86-3.12,6.84-5.4.6,0,1,.36.84,1.08-3.36,5-9,8.64-11.52,8.64a1.79,1.79,0,0,1-1.62-1.62,11.54,11.54,0,0,1,.84-3.42l5.82-17.1H98.65a1.5,1.5,0,0,1,.66-1.68l4.8-.84,3.36-5.94a2,2,0,0,1,2.28.36L108,162h6.54a1.74,1.74,0,0,1-.72,2.22Z"/><path class="cls-1" d="M130.69,143l-4.32,12.24-6.18,17.94.12.12c4.2-5.94,7.32-8.34,9.48-9.9s4.08-2.34,5.7-2.34c2.64,0,3.6,1.92,3.6,4,0,4.14-2.52,10.2-4.68,14a21.06,21.06,0,0,1-3.9,4.92c-2,2-3.6,2.34-4.38,2.34-2,0-2.22-1.26-2.22-1.74a1.9,1.9,0,0,1,1.62-1.92,1.43,1.43,0,0,1,.84.36,3.46,3.46,0,0,0,1.56.78c.9,0,1.5-.9,2.4-3,1.62-3.9,4.32-12.18,4.32-15.48,0-1.14-.42-1.8-1.26-1.8a6.53,6.53,0,0,0-3.24,1.62,37.88,37.88,0,0,0-7.62,8,97.19,97.19,0,0,0-7.26,12.48,1.1,1.1,0,0,1-1.08.72c-.66,0-2.22-.18-1.74-1.56l11.4-33.72c1.32-4,1.62-4.8.66-5.46l-1.26-.84a.58.58,0,0,1,.18-.78,32.87,32.87,0,0,1,7-1.38Z"/><path class="cls-1" d="M86.8,219.94l-6.7,19.58c-.43,1.37-.07,1.8.51,1.8,1.08,0,5.83-3.74,8.21-6.48.72,0,1.15.43,1,1.3-4,6-10.8,10.37-13.82,10.37a2.15,2.15,0,0,1-1.94-1.95,13.78,13.78,0,0,1,1-4.1l7-20.52H76.43a1.82,1.82,0,0,1,.79-2l5.76-1,4-7.13a2.42,2.42,0,0,1,2.73.44l-2.09,7.05h7.85a2.09,2.09,0,0,1-.86,2.67Z"/><path class="cls-1" d="M114.88,194.45l-5.18,14.69-7.42,21.53.14.14c5-7.13,8.79-10,11.38-11.88s4.9-2.81,6.84-2.81c3.17,0,4.32,2.31,4.32,4.83,0,5-3,12.24-5.62,16.84a24.81,24.81,0,0,1-4.68,5.91c-2.37,2.38-4.32,2.81-5.25,2.81-2.38,0-2.67-1.51-2.67-2.09a2.29,2.29,0,0,1,2-2.3,1.7,1.7,0,0,1,1,.43,4.09,4.09,0,0,0,1.87.93c1.08,0,1.8-1.08,2.88-3.6,1.94-4.68,5.18-14.61,5.18-18.57,0-1.37-.5-2.16-1.51-2.16s-2.52.86-3.89,1.94c-3,2.3-5.4,4.68-9.14,9.58-3.24,4.32-6.84,11.3-8.71,15a1.32,1.32,0,0,1-1.3.87c-.79,0-2.67-.22-2.09-1.87l13.68-40.47c1.59-4.75,2-5.76.79-6.55l-1.51-1a.71.71,0,0,1,.22-.94,39.41,39.41,0,0,1,8.42-1.65Z"/><path class="cls-1" d="M151.89,220.44c0,5.47-7.13,9.07-17.5,11.95a18.25,18.25,0,0,0-1,6.41c0,2.45,1.51,4.11,3.46,4.11,2.59,0,4.39-1.44,7.56-4.18a1,1,0,0,1,.93,1.23c-4.39,5.4-8.49,6.55-11.52,6.55-4.32,0-5.83-4-5.83-7.56,0-4.54,2.88-13.32,10.73-19.37,3.75-2.88,6.55-3.46,8.64-3.46A4.52,4.52,0,0,1,151.89,220.44Zm-11.45,1.37a28.58,28.58,0,0,0-5.33,8.42c4.75-1.44,7-2.8,9.65-5.32a8.15,8.15,0,0,0,2.81-4.9,1.54,1.54,0,0,0-1.66-1.66C144.9,218.35,143,219,140.44,221.81Z"/><path class="cls-1" d="M155.14,263.56c4.51-15.47,9.31-27.18,17.27-36.35,6.31-7.05,14.42-11.86,23.58-11.86a18.22,18.22,0,0,1,12.17,4.81,45.15,45.15,0,0,1,8.86-4.81l1,.9c-2.1,5.41-3.6,9.61-9.16,25.83l-24,70.89c-1.2,3.46-1,5,.75,5,3.3,0,10.36-7.36,17.27-15.17a1.94,1.94,0,0,1,2.4,2.1c-3.9,7.51-13.36,20-26,20-4.35,0-5.71-2.1-5.71-4.51s.76-5.1,3.31-12.76L190,269.12H164.45c-.9,2.55-2.1,7.36-3.45,11.86-4.81,16.67-9,33.35-14.12,49.87-4,13.51-8.71,21.78-11.87,24.63-1.8,1.8-8.26,7.66-17.12,7.66-6.91,0-9.76-5.11-9.76-7.66a6,6,0,0,1,2.85-5.41c2.11-1.8,3.16-.6,4.36,1.35,2.1,3.46,6,5.56,9,5.56,2.7,0,6.31-2.25,9.46-12.47,7.66-25.08,12.62-50.91,19.83-75.39H141.32c-1.5-1.35-.9-4.21,1.05-5.56Zm36.65,0,10.66-31.09c2.55-7.21-1.95-12.62-8.26-12.62-5.26,0-9.61,3-13.22,7.82-4.05,5.55-9,15.46-15,35.89Z"/><path class="cls-1" d="M262.83,280.38c-.45,8.26-4.81,22.68-15.92,34.1-9.32,9.61-17.43,10.36-21.48,10.36-9.61,0-15.92-7.06-15-20,.6-9.31,6.16-23.88,16.37-33.64,7.81-7.51,14.57-9.76,20.73-9.76C258.17,261.46,263.43,269.42,262.83,280.38Zm-27.34-7.21c-8.71,11.72-14.57,29.59-15,37.55-.3,5.26,1.8,9.61,6.16,9.61,3.3,0,7.06-1.35,11.86-7.81,6.61-8.86,13.67-28.68,14-36.64.15-4.66-.75-9.92-6-9.92C243.45,266,239.85,267.32,235.49,273.17Z"/><path class="cls-1" d="M288.36,275.73c1.35-3.46,1.65-5.56-.45-5.56-3,0-9.32,5.11-13.82,10.51a2.38,2.38,0,0,1-2.26-2.55c4.66-6.76,14.42-16.67,23.74-16.67,3.45,0,6.6,4.35,4.5,9.91l-11.86,31.39c-2.11,5.41-2.86,8.56-2.86,10.66,0,1.81.75,3.61,3.31,3.61,6.76,0,18.32-14.87,23.58-22.83,5.85-8.86,9-20.43,9.76-24,1.05-5,4.36-8.11,7.06-8.11a4.2,4.2,0,0,1,4.5,4.2c0,3.16-1.65,6-5.25,13.52-5.41,11.12-8.11,22.53-8.11,30.64,0,4.51,1.95,6.61,5.55,6.61,4.51,0,12.47-5.56,18.63-14.42,5.86-8.41,9.31-17.57,9.31-25.08a36.45,36.45,0,0,0-1.35-10.66,5.71,5.71,0,0,1,5.56-5.41c4.8,0,5.85,5.56,5.85,9.31,0,8.41-4.8,21.78-16.37,35.75-10.81,13.06-22.68,18.32-28.68,18.32-3.16,0-8.42-3.91-8.42-8.56,0-4.06,1.36-8.86,2.56-12.77.75-2.4-.3-2.25-2.1.15-7.06,9.61-19.53,21.18-28.54,21.18-4.21,0-7.66-4.51-7.66-8.11,0-2.85,1-6.76,2.55-11Z"/></svg>