<svg id="Layer_1" data-name="Layer 1" xmlns="http://www.w3.org/2000/svg" viewBox="0 0 719.92 719.92"><defs><style>.cls-1{fill:#004674;}.cls-2{fill:#fff;}.cls-3{fill:#85b0c1;}</style></defs><title>autobio3</title><rect class="cls-1" width="719.92" height="719.92"/><path class="cls-2" d="M73.09,156.59V70.92H90.37v85.67Z"/><path class="cls-2" d="M120.72,86.52c0,12.84-3,21.6-15.84,22.92V101c4.2-.84,6.24-5,6.24-9.48V89.64h-6.24V70.92h15.84Z"/><path class="cls-2" d="M162.84,149.75h-.24c-3.72,6.12-8,8.52-14.64,8.52-13.56,0-19.8-10-19.8-34s6.24-34,19.8-34c6.24,0,10.44,2.52,13.92,7.68h.24V70.92h16.55v85.67H162.84Zm-9.48-4.2c7.32,0,8.76-7.2,8.76-21.23s-1.44-21.24-8.76-21.24-8.64,7.2-8.64,21.24S146.16,145.55,153.36,145.55Z"/><path class="cls-2" d="M218.51,92h15.84v8.64h.24c3.36-6.24,8-10.32,14.87-10.32a25.26,25.26,0,0,1,3,.24v15.84c-1.8-.12-3.35-.24-5.16-.24-5.75,0-12.23,3-12.23,11.64v38.75H218.51Z"/><path class="cls-2" d="M258.34,111.84v-1.56c0-14.88,10.2-19.92,22.68-19.92,19.68,0,23.4,8.16,23.4,19.8v34c0,6.12.48,8.64,2,12.48H290.62a25.65,25.65,0,0,1-2-6.72h-.24c-3.84,6.72-8.4,8.4-16.44,8.4-11.52,0-15.6-9.84-15.6-18.47,0-12.24,4.92-17,16.32-20.16l9.36-2.52c4.92-1.32,6.6-3.24,6.6-7.56,0-4.92-2-7.92-7.68-7.92-5.16,0-7.68,3.24-7.68,8.4v1.8Zm30.24,12.48a18.47,18.47,0,0,1-7.08,3.24c-6.72,1.44-9.36,4.68-9.36,10.43,0,4.92,1.8,9,6.24,9s10.2-2.76,10.2-10Z"/><path class="cls-2" d="M317.13,73.56h16.56V92h9.6v11.28h-9.6v34.91c0,5.16,1.08,7.08,5.88,7.08a34.21,34.21,0,0,0,3.72-.24v11.52a106.42,106.42,0,0,1-10.8.72c-13,0-15.36-4.08-15.36-17v-37h-8.39V92h8.39Z"/><path class="cls-2" d="M349.05,70.92h16.56V98.64h.24c3.24-5.64,8.64-8.28,15.72-8.28C392,90.36,398,95.88,398,108.72v47.87H381.45V112.08c0-6.6-2.16-9-7.08-9-5.88,0-8.76,3.6-8.76,10.68v42.83H349.05Z"/><path class="cls-2" d="M420.56,126.84V132c0,7.67,2,15,8.16,15,5.64,0,7.8-4,8.76-12.11h14.88c-.6,15-7.56,23.39-23.4,23.39-24,0-25-18.47-25-34.55,0-17.28,3.36-33.36,25.68-33.36,19.32,0,23.64,13,23.64,32.76v3.72ZM437.48,117c-.36-9.84-1.56-15.36-8.4-15.36-6.6,0-8.52,6.72-8.52,12.84V117Z"/><path class="cls-2" d="M459.32,92h15.83v8.64h.25c3.35-6.24,8-10.32,14.87-10.32a25.26,25.26,0,0,1,3,.24v15.84c-1.8-.12-3.36-.24-5.16-.24-5.76,0-12.24,3-12.24,11.64v38.75H459.32Z"/><path class="cls-3" d="M107.83,380.36c4.73-45.42,12.19-80.51,29.75-110.09,14-22.87,34.19-40.38,59.73-45a51.71,51.71,0,0,1,36.36,7.24c10.35-9.67,16.79-14.73,22.27-17.89l3.39,2c-3.13,16.14-5.18,28.63-12.46,76.67L215.76,503.07c-1.6,10.24-.42,14.35,4.61,13.44,9.21-1.68,25.16-25.77,40.47-51,4.11-1.18,7,.45,7.77,4.64C261.52,493,241.45,532.57,206.28,539c-12.14,2.21-17-3-18.2-9.67s-.49-14.62,2.75-37.26l17-113.82L136.6,391.13c-1.22,7.58-2.13,21.59-3.62,34.84-5,48.91-8.24,97.53-14.11,146.17-4.46,39.75-13.26,65.14-20.61,74.69-4.11,5.94-19.15,25.54-43.86,30-19.26,3.49-29.81-9.3-31.1-16.42-1.67-9.21,2.67-13.89,5.22-16.52,4.95-6.09,8.49-3.27,12.83,1.57,7.61,8.56,19.56,12.45,27.94,10.93,7.53-1.37,16.45-9.48,20.07-39.55,8.65-73.81,9.39-148.35,17.09-220.26l-34.34,6.24c-4.87-3-4.64-11.27.12-16ZM210,361.8l14-92.08c3.47-21.39-11.83-34.19-29.42-31-14.66,2.67-25.28,13.25-32.9,28.47-8.49,17.55-17.29,47.7-23.69,107.69Z"/><path class="cls-3" d="M416.6,372.73c2.92,23.26-1.92,65.66-27.13,103.11-21.09,31.52-43.33,37.72-54.63,39.77-26.8,4.87-48-11.61-52-48.08-3-26.27,5.08-69.7,28.61-102.1,18-24.89,35.67-34.59,52.84-37.71C394,322.32,412.72,341.85,416.6,372.73Zm-79.87-6.26c-18.35,37.07-25.63,89.87-22.86,112.29,1.83,14.81,9.89,25.89,22,23.69,9.21-1.68,19-7.35,29.13-27.79,13.93-28.05,23.57-86.9,20.38-109.25-1.94-13.06-7.11-27.26-21.77-24.59C355.28,342.34,345.91,347.93,336.73,366.47Z"/><path class="cls-3" d="M475.8,348.57c2-10.32,1.79-16.33-4.08-15.27-8.37,1.52-23.37,18.95-33.2,36.31a6.72,6.72,0,0,1-7.57-6c9.56-21.2,31.76-53.78,57.72-58.5,9.63-1.75,20.63,8.8,17.58,25.36L489.07,424c-3.13,16.14-3.63,25.31-2.56,31.17.91,5,3.92,9.67,11,8.38,18.84-3.42,43.56-50.73,54.18-75.59,11.85-27.67,14.78-61.52,15-72,.42-14.35,8-24.82,15.58-26.18,10-1.83,14,5.67,14.69,9.44,1.6,8.79-1.57,17.59-7.81,40.35-9.45,33.73-11.21,66.92-7.1,89.53,2.28,12.57,8.79,17.44,18.84,15.61,12.56-2.28,31.94-21.8,44.63-49.63,12.07-26.41,17.06-53.71,13.26-74.64-1.83-10.06-4.49-19.95-9.17-29.05-.76-8.95,4.8-16.45,12.75-17.89,13.4-2.43,19.15,12.53,21,23,4.26,23.45-2.37,63.16-27.54,108-23.54,41.91-54,62.57-70.71,65.61-8.79,1.6-25.42-6.62-27.78-19.61-2.06-11.3-.72-25.39.65-36.88.88-7.08-2-6.13-5.78,1.48-14.82,30.38-43.72,68.93-68.84,73.5-11.73,2.12-23.64-8.69-25.47-18.74-1.44-7.95-.49-19.37,1.57-31.86Z"/><path class="cls-3" d="M296.27,271.15a17.3,17.3,0,0,0,2.35,1.31,17.08,17.08,0,0,0,4.57.2,23.64,23.64,0,0,1,4.27-.16,2.52,2.52,0,0,1,2.14,2.67c.13,2.22-1,2.87-1.94,2.74a17,17,0,0,1-3.19-.92,20,20,0,0,0-3.58-1.14c-.48-.09-.94.12-.83.43a18.15,18.15,0,0,1,.88,3.8c.44,7.85-4.71,14.37-11.1,17a25.68,25.68,0,0,1-6.66.77,2.75,2.75,0,0,0-1.92,2.82c.06,1.16.83,3.14,3.42,5.48,2.29,2.17,6.14,5.25,9.71,8.1,5.75,4.44,7.54,7.63,7.71,10.75.31,5.29-7.12,10.78-22.74,6.15-7-2.08-15.3-8.19-15.66-14.82-.41-7.38,10.55-7.65,15.63-7.88-2.58-2.44-3.24-4.12-3.31-5.48-.1-1.76,2.65-4.81,3.9-6.17-1.85-1-7.12-4.52-7.49-11.12a15.47,15.47,0,0,1,6.86-13.88,18.12,18.12,0,0,1,13.86-2.14A13.41,13.41,0,0,1,296.27,271.15Zm-.39,54.44c-.1-1.66-1.27-4-4.46-6.82-4.17-3.64-7.63-6.53-9.18-7.17-2.41-1-6.05-.29-8.71.79a4.79,4.79,0,0,0-3.29,5.06c.25,4.63,6.83,10,13.35,11.74C288,330.5,296.13,330.3,295.88,325.59ZM286,274.65c-3.5,3.43-7.91,10.5-7.64,15.49a4.84,4.84,0,0,0,3.07,4.29c1.34.4,3.61.46,6.12-2.08,5-5.09,7.88-13.12,7.71-16.21a4.29,4.29,0,0,0-3.06-3.93C290.53,271.85,288.75,272.11,286,274.65Z"/><path class="cls-3" d="M340.89,285.61a35,35,0,0,1-8.94,22c-5.59,6.15-10.74,6.36-13.33,6.18-6.14-.43-10.41-5.54-10.3-13.79a31,31,0,0,1,9.24-20.62c4.71-4.46,8.94-5.76,12.87-5.72C337.24,273.71,340.88,278.58,340.89,285.61ZM323.19,281c-5.14,7.26-8.24,18.38-8.24,23.49,0,3.36,1.49,6.3,4.27,6.48,2.11.14,4.46-.61,7.3-4.66,3.89-5.56,7.69-18.3,7.59-23.39-.07-3-.83-6.32-4.19-6.35C328,276.53,325.75,277.34,323.19,281Z"/><path class="cls-3" d="M374.93,278.94c.74-2.34.86-3.71-.49-3.48-1.91.33-5.75,4.2-8.43,8a1.37,1.37,0,0,1-1.53-1.42c2.73-4.69,8.6-11.9,14.54-13,2.2-.4,4.37,2,3.23,5.75q-3.22,10.67-6.44,21.26c-1.15,3.66-1.52,5.74-1.44,7.07.06,1.15.61,2.21,2.24,1.93,4.31-.73,11.16-11.62,14.22-17.39a58,58,0,0,0,5.37-16.57c.49-3.28,2.49-5.76,4.22-6.16,2.3-.55,3,1.11,3,2,.12,2-.84,4.06-2.87,9.34-3.05,7.84-4.36,15.44-4.07,20.56.16,2.85,1.48,3.9,3.78,3.36,2.87-.67,7.76-5.43,11.37-12,3.43-6.27,5.31-12.65,5-17.38a21.07,21.07,0,0,0-1.24-6.5,4.74,4.74,0,0,1,3.35-4.35c3.06-.83,3.94,2.49,4.07,4.86.3,5.29-2.29,14.59-9.16,25.33-6.44,10.06-13.82,15.2-17.65,16.06-2,.46-5.51-1.29-5.68-4.24a32.55,32.55,0,0,1,1.17-8.42c.4-1.63-.27-1.38-1.33.38-4.16,7.05-11.7,15.93-17.46,16.85-2.68.44-5.05-2.11-5.17-4.4a23.89,23.89,0,0,1,1.23-7.2Q371.88,289.08,374.93,278.94Z"/><path class="cls-3" d="M438.5,262.38c.42-1.18.38-1.93-.29-1.74s-3.1,2.05-7.67,7.29a1.07,1.07,0,0,1-1.34-1.26c4.93-7.44,12.12-13.08,15.28-14a1.85,1.85,0,0,1,1.58.5c.61.4.66,1.25-.33,4.33q-5,15.09-9.88,30.17c-.33,1.06-.36,2.22.41,2,1.63-.47,6.52-5.25,9.57-9.89a1.16,1.16,0,0,1,1.53,1.18c-1.28,3.17-10.67,14.57-17.28,16.43a1.72,1.72,0,0,1-1.59-.42,2,2,0,0,1-.52-2.44Q433.24,278.47,438.5,262.38Zm10.06-27.06c.16,2.93-1.78,6.48-4.66,7.32-2.48.73-3.46-.92-3.55-2.52-.12-2.09,1-6.35,4.74-7.44C447.3,232,448.44,233.24,448.56,235.32Z"/><path class="cls-3" d="M470,250.29q-3.72,14.16-7.45,28.32c-.47,2,0,2.39.81,2.17,1.44-.42,7.48-7.18,10.44-11.69,1-.27,1.56.13,1.44,1.32-4.92,9.38-13.6,17.79-17.63,19a2.17,2.17,0,0,1-2.73-1.79c-.07-1.23.24-2.67,1-5.79q3.89-14.83,7.76-29.68l-7.47,2.2a2.87,2.87,0,0,1,.9-3c2.53-1.19,5.06-2.39,7.59-3.57q2.41-5.48,4.84-10.93c.92-.85,2.85-1.21,3.67-.49l-2.25,10.08q5.22-1.52,10.45-3c.72.75.25,2.81-.95,3.82Q475.19,248.77,470,250.29Z"/><path class="cls-3" d="M505.44,206.63q-2.91,10.51-5.8,21.07-4.14,15.42-8.26,30.91l.2.14c6.17-11.18,10.94-16.22,14.25-19.52s6.31-5.26,8.9-5.84c4.21-.94,5.92,1.8,6.11,5.12.37,6.55-3.11,17-6.22,23.84a43.23,43.23,0,0,1-5.78,9.23c-3,3.88-5.54,5.09-6.79,5.41-3.16.79-3.66-1.09-3.7-1.85a3.87,3.87,0,0,1,2.41-3.69,2,2,0,0,1,1.38.23,4.64,4.64,0,0,0,2.56.61c1.44-.35,2.31-2,3.56-5.67,2.24-6.79,5.81-20.87,5.52-26.09-.11-1.8-.84-2.7-2.18-2.39s-3.29,1.93-5,3.79c-3.85,4-6.84,7.94-11.46,15.69-4,6.81-8.25,17.31-10.47,22.83a2.36,2.36,0,0,1-1.66,1.61c-1.06.29-3.56.71-2.92-1.68q7.59-29.16,15.18-58.18c1.75-6.8,2.15-8.25.56-8.9l-2.08-.79a1,1,0,0,1,.21-1.31,59.45,59.45,0,0,1,11.09-5Z"/><path class="cls-3" d="M559.48,231.37q-3.72,13.37-7.45,26.86c-.47,1.88,0,2.4.81,2.32,1.43-.18,7.48-5.74,10.44-9.56,1-.06,1.56.48,1.44,1.64-4.92,8.23-13.61,15-17.63,15.52a2.61,2.61,0,0,1-2.73-2.23c-.07-1.24.24-2.63,1-5.63q3.89-14.22,7.76-28.33-3.74.39-7.47.89a2.54,2.54,0,0,1,.9-2.81q3.79-1.17,7.59-2.23c1.61-3.33,3.22-6.66,4.83-10a3.18,3.18,0,0,1,3.68.3l-2.25,9.58c3.48-.26,7-.46,10.45-.57a2.76,2.76,0,0,1-1,3.59C566.44,230.88,563,231.08,559.48,231.37Z"/><path class="cls-3" d="M595,197.32q-2.91,9.56-5.8,19.19Q585,230.66,580.88,245l.21.2c6.17-9.42,10.94-12.91,14.25-15.12s6.31-3.08,8.9-2.72c4.22.61,5.92,4,6.11,7.42.37,6.7-3.11,15.78-6.21,21.51a27.19,27.19,0,0,1-5.79,7.17c-3,2.85-5.54,3.23-6.79,3.15-3.16-.22-3.66-2.24-3.7-3-.09-1.64,1.17-3,2.41-2.94a2.51,2.51,0,0,1,1.38.66,6.44,6.44,0,0,0,2.56,1.45c1.44.13,2.31-1.23,3.56-4.47,2.24-6,5.81-18.82,5.51-24.14-.1-1.84-.83-3-2.17-3.17s-3.29.77-5,2.05c-3.85,2.72-6.84,5.68-11.46,12.05-4,5.63-8.25,15-10.47,19.91a1.68,1.68,0,0,1-1.66,1.19c-1.06,0-3.57-.17-2.92-2.41q7.59-27.3,15.18-54.07c1.75-6.27,2.15-7.6.56-8.73l-2.09-1.41a.91.91,0,0,1,.22-1.24,39.46,39.46,0,0,1,11.09-1.58Z"/><path class="cls-3" d="M646.15,244.6c.41,7.55-8.81,8.09-22.39,8.37a21.63,21.63,0,0,0-.86,8.33,7.44,7.44,0,0,0,4.9,6.82c3.45,1,5.74-.19,9.75-2.43a2.06,2.06,0,0,1,1.34,2.12c-5.44,5.21-10.81,5.13-14.84,4.08-5.75-1.5-8.07-7.29-8.33-12.07-.34-6.06,2.84-17.41,12.83-22.64a13.21,13.21,0,0,1,11.24-.87A10.67,10.67,0,0,1,646.15,244.6ZM631,240.91a23.53,23.53,0,0,0-6.46,9.38c6.21-.23,9.08-1,12.44-3.26a6.72,6.72,0,0,0,3.37-5.31,3.45,3.45,0,0,0-2.33-3.07C636.7,238.17,634.26,238.17,631,240.91Z"/></svg>