<svg id="Layer_1" data-name="Layer 1" xmlns="http://www.w3.org/2000/svg" viewBox="0 0 792 792"><defs><style>.cls-1{fill:#231f20;}.cls-2{fill:#fff;}</style></defs><title>letterform_options</title><path class="cls-1" d="M155.62,473.43h45.65V392.38H70.83v-20.5l160.72-218h31.21V342.53H300v49.85H262.76v81.05h44.72v8.39H155.62Zm45.65-259.94h-.93l-92.7,128.58h93.63Z"/><path class="cls-2" d="M198.55,467.83H220V342.11H198.55v-5.6h22.09c12.76,0,35.79,0,42.33-8.09V467.83h21.47v5.6H198.55ZM241.49,255.6a25.21,25.21,0,1,1-25.2,25.21A25.1,25.1,0,0,1,241.49,255.6Z"/><path class="cls-1" d="M719.74,354l-65.55,9.85L631.87,338a122.88,122.88,0,0,1-33.28,13.77q-16.38,3.91-37.9,3.92-82,0-124.66-56.3-31-41-31-90.28a141.46,141.46,0,0,1,6.13-40.91,150.23,150.23,0,0,1,45.34-69.87q40-34.59,101.74-34.58,32.58,0,60.22,10.85a142.46,142.46,0,0,1,48,30.66,137.26,137.26,0,0,1,31.37,46.85,152.37,152.37,0,0,1,11.06,58.21,141.93,141.93,0,0,1-8.45,49.46q-8.45,22.92-27.34,46.85ZM602.31,231l18.9,20.11q13.27-19.5,13.27-40.82A75,75,0,0,0,624,172a78.71,78.71,0,0,0-28.15-28.55,72.2,72.2,0,0,0-37.6-10.56,78.85,78.85,0,0,0-39.71,10.36,76.39,76.39,0,0,0-38.91,67.05,77.42,77.42,0,0,0,10,39,70.6,70.6,0,0,0,27.74,27.34,80.59,80.59,0,0,0,39.71,9.85,85.33,85.33,0,0,0,21.72-3.21l-43.63-44Z"/><path class="cls-2" d="M615.36,261l4.88-69,46.46,3.29-12,169.15-52.08-57.36Q592.41,296,578,282.26t-26.06-22.94q-18.24-14-35.37-15.22a28.3,28.3,0,0,0-13.74,2.36,26.6,26.6,0,0,0-10.59,8.24,21.2,21.2,0,0,0-4.54,11.55,21.56,21.56,0,0,0,5.85,17q6.57,7,17.37,7.74a65.15,65.15,0,0,0,9.94-.22l-4.25,60Q493,349,475.17,337.41a72.45,72.45,0,0,1-26.74-31q-8.94-19.41-7.28-42.86a94.87,94.87,0,0,1,8-32.4,75.91,75.91,0,0,1,17.43-24.9,71.1,71.1,0,0,1,25.26-15,76.24,76.24,0,0,1,30.91-3.94,76.94,76.94,0,0,1,43.18,16.63A119,119,0,0,1,585,223.2Z"/><path class="cls-1" d="M390.7,557.62q-22.41-9.71-34.36-26.07t-12-37.92q0-24.13,12.71-43.2t35.55-29.63q22.85-10.55,52.79-10.55t52.46,10.34Q520.41,430.93,532.8,450t12.38,44.06q0,22-10.77,36.3t-37.27,27.26q60.11,23.7,60.11,75.41A73,73,0,0,1,542.6,677.3q-14.65,19.94-40.29,31.35t-56.88,11.42q-48.48,0-80.69-24.67T332.53,633q0-26.94,14.22-45.57T390.7,557.62Zm54.3,31a35.23,35.23,0,0,0,0,70.46,33.53,33.53,0,0,0,24.56-10.35,35.63,35.63,0,0,0,.32-49.87A33.43,33.43,0,0,0,445,588.64Zm0-127.12a32.35,32.35,0,0,0-28.23,16,31.3,31.3,0,0,0-4.31,16.16A32.22,32.22,0,0,0,416.67,510a32.76,32.76,0,0,0,11.63,11.85,31.46,31.46,0,0,0,16.7,4.53A30.56,30.56,0,0,0,461.26,522a34.32,34.32,0,0,0,11.64-11.74,31.57,31.57,0,0,0,4.42-16.59,31.16,31.16,0,0,0-4.42-16.38,32.43,32.43,0,0,0-11.74-11.53A31.93,31.93,0,0,0,445,461.52Z"/><path class="cls-2" d="M466.08,592.3a43.29,43.29,0,0,1,13.55,31.37c0,2.5-3.57,8.56-7.85,8.56H394.07c-1.78,0-3.57,1.07-3.92,2.49-1.07,2.86-1.43,8.56-1.43,12.84,0,7.84,4.28,24.24,11,33.15,8.91,11.41,23.89,17.83,39.57,17.83,15,0,25.31-3.57,32.09-12.48,1.42-2.14,3.21-4.28,4.63-4.28s3.21,2.5,3.21,4.63a19.85,19.85,0,0,1-2.85,8.92c-11.05,17.11-27.81,31-57,31-41,0-65.95-31-65.95-71.65A77.19,77.19,0,0,1,398.7,584.1a70.16,70.16,0,0,1,29.24-6.77C442.2,577.33,456.81,583,466.08,592.3Zm-73.79,25.31c-.36,1.78,1.07,3.57,2.49,3.57,9.27.35,20.32,0,38.15,0,5.7,0,12.47-3.57,12.47-12.12,0-10-10-21.75-20-21.75C410.47,587.31,396.56,601.57,392.29,617.61Z"/></svg>